<svg height='100px' width='100px'  fill="#FFFFFF" xmlns="http://www.w3.org/2000/svg" xmlns:xlink="http://www.w3.org/1999/xlink" version="1.1" x="0px" y="0px" viewBox="0 0 50 50" enable-background="new 0 0 50 50" xml:space="preserve"><path d="M31.379,24.444C34.171,22.448,36,19.187,36,15.5c0-6.065-4.935-11-11-11s-11,4.935-11,11c0,3.687,1.829,6.947,4.621,8.944  C9.591,27.186,3,35.586,3,45.5h3c0-10.477,8.523-19,19-19s19,8.523,19,19h3C47,35.587,40.408,27.186,31.379,24.444z M17,15.5  c0-4.411,3.589-8,8-8s8,3.589,8,8s-3.589,8-8,8S17,19.911,17,15.5z"></path></svg>