<svg height='100px' width='100px'  fill="#FFF200" xmlns="http://www.w3.org/2000/svg" viewBox="0 0 32 32" x="0px" y="0px"><title>star</title><g data-name="Layer 42"><path d="M26.1543,20.15a.7729.7729,0,0,0-.2227.6836l1.0713,6.2529a3.46,3.46,0,0,1-5.0283,3.6543L16.36,27.7891a.779.779,0,0,0-.7217.0009l-5.6123,2.9512a3.4662,3.4662,0,0,1-5.0293-3.6543l1.0713-6.251a.7749.7749,0,0,0-.2227-.6855l-4.542-4.4277A3.4655,3.4655,0,0,1,3.2246,9.8115L9.502,8.8994a.7759.7759,0,0,0,.583-.4248l2.8076-5.6875a3.4653,3.4653,0,0,1,6.2148,0L21.915,8.4756a.7771.7771,0,0,0,.583.4238l6.2774.9121a3.4655,3.4655,0,0,1,1.9209,5.9112Z"></path></g></svg>